<svg width="106" height="38" viewBox="0 0 106 38" fill="none" xmlns="http://www.w3.org/2000/svg">
<path d="M1.23223 17.2322C0.255922 18.2085 0.255922 19.7915 1.23223 20.7678L17.1421 36.6777C18.1184 37.654 19.7014 37.654 20.6777 36.6777C21.654 35.7014 21.654 34.1184 20.6777 33.1421L6.53553 19L20.6777 4.85786C21.654 3.88155 21.654 2.29864 20.6777 1.32233C19.7014 0.34602 18.1184 0.34602 17.1421 1.32233L1.23223 17.2322ZM104.768 20.7678C105.744 19.7915 105.744 18.2085 104.768 17.2322L88.8579 1.32233C87.8816 0.34602 86.2986 0.34602 85.3223 1.32233C84.346 2.29864 84.346 3.88155 85.3223 4.85786L99.4645 19L85.3223 33.1421C84.346 34.1184 84.346 35.7014 85.3223 36.6777C86.2986 37.654 87.8816 37.654 88.8579 36.6777L104.768 20.7678ZM3 21.5H103V16.5H3V21.5Z" fill="black"/>
</svg>
