<svg width="1345" height="423" viewBox="0 0 1345 423" fill="none" xmlns="http://www.w3.org/2000/svg">
<ellipse cx="332" cy="211.5" rx="332" ry="211.5" fill="url(#paint0_radial_0_1)"/>
<ellipse cx="1004.5" cy="211.5" rx="340.5" ry="211.5" fill="url(#paint1_radial_0_1)"/>
<path d="M587.052 264C578.036 264 571.276 255.25 565.776 236.465C562.694 225.94 551.506 213.405 549.296 210.999C546.601 208.067 544.57 204.654 543.016 201.284C545.135 207.506 547.712 214.338 550.289 220.549C550.86 221.928 552.329 226.475 552.967 231.011C553.832 237.172 552.869 240.953 550.103 242.247C549.079 242.726 547.982 242.732 546.839 242.267C546.144 241.985 545.426 241.516 544.679 240.856C548.944 247.084 549.942 252.29 547.641 256.381L547.617 256.422C546.059 258.884 543.902 260.312 541.205 260.666C540.759 260.725 540.301 260.753 539.835 260.753C532.342 260.753 522.729 253.373 515.796 246.965C514.666 245.92 509.517 240.642 504.065 235.057C497.968 228.809 491.058 221.727 489.751 220.56C478.576 210.574 465.509 207.395 459.229 205.867C450.765 203.807 445.812 204.069 441.83 204.28C437.826 204.491 434.663 204.659 430.094 202.316C421.177 197.743 418.256 189.51 415.164 180.795C414.015 177.557 412.838 174.238 411.316 170.99C401.535 170.333 394.245 170.971 387.57 173.668C378.215 177.447 373.691 182.487 365.476 191.636C361.396 196.182 356.319 201.837 349.293 208.852C336.508 221.616 322.745 233.426 308.382 243.956L307.308 242.478C321.596 232.004 335.289 220.254 348.007 207.555C354.999 200.575 360.058 194.94 364.123 190.411C372.52 181.059 377.144 175.906 386.889 171.97C393.62 169.251 400.858 168.536 410.383 169.095C410.009 168.376 409.616 167.661 409.197 166.952C397.612 147.314 369.057 133.698 345.546 136.601C340.448 137.231 336.662 138.535 333.002 139.797C327.254 141.777 322.292 143.488 314.334 141.803C309.752 140.833 304.91 138.841 300.702 136.197C296.652 133.652 293.427 130.678 291.619 127.821C290.225 125.618 289.727 123.601 290.141 121.827C290.713 119.382 292.928 118.315 294.543 117.727C296.772 116.914 299.858 116.351 303.762 115.639C308.481 114.778 314.353 113.706 321.449 111.72C334.994 107.928 341.935 103.88 348.648 99.9659C355.176 96.1594 361.341 92.5653 372.891 89.3707C381.141 87.0894 397.937 83.5666 417.741 85.6181C427.227 86.6011 442.632 91.5966 473.323 101.55C480.628 103.918 485.734 105.642 489.462 106.899C497.535 109.623 499.453 110.269 504.329 110.951C507.575 111.405 510.518 111.655 513.363 111.896C520.811 112.529 527.243 113.076 534.794 117.004C541.24 120.359 546.35 125.716 548.273 127.732C548.408 127.875 548.528 128 548.629 128.105C551.76 131.347 553.06 133.429 554.206 135.265C555.217 136.883 556.088 138.28 558.025 140.27C560.991 143.315 563.054 144.262 569.894 147.398C572.567 148.623 575.895 150.148 580.272 152.252C591.258 157.531 597.31 160.441 600.793 163.844C602.883 165.886 603.471 166.917 606.294 171.87C607.558 174.086 609.289 177.122 611.823 181.417C616.056 188.594 625.469 205.531 627.381 209.236C628.839 212.061 630.699 216.686 631.547 221.188C632.544 226.491 631.894 230.09 629.609 231.885L629.524 231.943C626.013 234.111 622.634 234.215 619.193 232.264C616.2 230.566 613.05 227.301 608.978 221.68C604.716 215.796 601.556 209.879 598.767 204.659C593.596 194.98 589.513 187.334 581.166 183.611C578.758 182.538 576.104 182.294 573.296 182.037C570.183 181.751 566.964 181.458 563.495 180.076C560.583 178.917 558.494 177.591 556.65 176.421C553.835 174.635 551.404 173.092 546.765 172.398C543.416 171.895 539.723 172.092 535.812 172.301C530.011 172.61 524.013 172.929 518.076 171.098C511.417 169.787 503.383 169.257 496.025 169.642C489.347 169.993 483.958 171.066 481.962 172.442C481.446 172.799 481.37 173.033 481.359 173.097C481.258 173.68 482.651 175.459 486.817 177.747C490.708 179.882 495.708 181.744 500.192 182.723C502.985 183.334 505.515 183.763 507.746 184.142C512.868 185.013 516.568 185.64 519.401 187.652C524.932 191.581 527.242 199.072 529.099 205.09C529.591 206.687 530.055 208.194 530.526 209.428C537.767 228.449 543.484 238.925 547.519 240.566C548.184 240.836 548.776 240.842 549.329 240.582C551.228 239.693 551.877 236.382 551.159 231.26C550.534 226.811 549.067 222.363 548.604 221.245C545.429 213.592 542.273 205.049 539.942 197.805C536.123 185.926 536.734 184.593 536.963 184.092C537.111 183.767 537.366 183.532 537.678 183.43C537.977 183.334 538.296 183.364 538.575 183.518C539.317 183.922 539.628 184.976 540.5 188.248C541.97 193.767 544.43 203.005 550.631 209.751C552.891 212.21 564.325 225.026 567.521 235.942C572.76 253.831 578.965 262.164 587.05 262.164V263.994L587.052 264ZM446.066 202.309C449.472 202.309 453.729 202.647 459.659 204.09C466.082 205.653 479.449 208.904 490.962 219.195C492.315 220.403 498.95 227.203 505.366 233.778C510.801 239.346 515.934 244.606 517.029 245.621C522.824 250.976 533.636 259.816 540.969 258.854C543.127 258.57 544.796 257.46 546.067 255.461C548.461 251.174 546.361 245.158 539.824 237.579C534.4 231.29 527.376 225.691 524.376 223.3C523.85 222.881 523.435 222.55 523.16 222.32C512.069 213.068 508.257 207.015 504.896 201.674C501.973 197.031 499.45 193.022 492.432 188.098C482.191 180.914 469.503 179.01 444.224 175.216C431.561 173.316 421.615 171.824 413.396 171.148C414.747 174.164 415.826 177.206 416.882 180.185C419.977 188.911 422.65 196.448 430.923 200.689C435.057 202.809 437.858 202.66 441.734 202.455C443.046 202.385 444.462 202.311 446.065 202.311L446.066 202.309ZM412.5 169.24C420.993 169.878 431.278 171.421 444.492 173.404C470.053 177.241 482.883 179.166 493.474 186.596C500.794 191.732 503.408 195.885 506.435 200.694C509.726 205.921 513.453 211.844 524.324 220.911C524.583 221.126 524.992 221.453 525.508 221.865C528.412 224.178 535.035 229.459 540.446 235.52C537.116 230.217 533.3 221.84 528.825 210.086C528.334 208.797 527.861 207.262 527.36 205.637C525.586 199.882 523.377 192.721 518.351 189.151C515.858 187.38 512.328 186.78 507.444 185.951C505.193 185.569 502.641 185.136 499.807 184.516C495.162 183.502 489.98 181.572 485.946 179.358C482.813 177.637 479.164 175.102 479.567 172.788C479.686 172.104 480.145 171.483 480.934 170.939C483.225 169.358 488.832 168.193 495.934 167.821C503.563 167.42 511.57 167.951 518.479 169.316L518.572 169.339C524.213 171.09 530.063 170.779 535.72 170.478C539.724 170.265 543.508 170.064 547.038 170.592C552.056 171.345 554.762 173.062 557.628 174.879C559.491 176.062 561.417 177.284 564.17 178.379C567.395 179.664 570.481 179.946 573.467 180.218C576.429 180.49 579.228 180.745 581.911 181.942C590.829 185.919 595.254 194.203 600.378 203.796C603.139 208.965 606.268 214.824 610.456 220.606C614.367 226.006 617.34 229.11 620.095 230.673C622.968 232.303 625.572 232.224 628.529 230.415C632.085 227.528 629.219 216.768 625.768 210.079C623.864 206.39 614.48 189.509 610.26 182.351C607.72 178.043 605.984 175.002 604.718 172.78C601.934 167.9 601.434 167.02 599.527 165.157C596.391 162.093 591.117 159.493 579.49 153.904C575.128 151.808 571.809 150.286 569.142 149.064C562.066 145.82 559.93 144.84 556.728 141.551C554.654 139.42 553.69 137.874 552.668 136.238C551.516 134.393 550.325 132.484 547.328 129.381C547.224 129.273 547.103 129.147 546.964 129.001C545.097 127.044 540.14 121.846 533.962 118.631C526.735 114.87 520.47 114.337 513.216 113.721C510.346 113.477 507.379 113.225 504.084 112.765C499.04 112.059 497.091 111.403 488.889 108.635C485.166 107.379 480.066 105.659 472.77 103.292C442.196 93.3786 426.851 88.4021 417.556 87.4397C398.049 85.4184 381.504 88.8888 373.377 91.1369C362.055 94.2696 355.989 97.8066 349.566 101.551C342.754 105.523 335.709 109.63 321.94 113.485C314.764 115.493 308.845 116.573 304.091 117.442C296.648 118.8 292.549 119.549 291.917 122.249C291.624 123.506 292.053 125.094 293.158 126.843C296.207 131.661 304.798 137.917 314.712 140.018C322.177 141.6 326.92 139.965 332.411 138.072C335.986 136.841 340.039 135.444 345.325 134.791C369.487 131.807 398.845 145.819 410.765 166.024C411.394 167.088 411.967 168.163 412.499 169.243L412.5 169.24Z" fill="#1D1D1B" fill-opacity="0.72"/>
<path d="M774.07 343.991C773.41 343.991 772.739 343.861 772.056 343.602C770.43 342.981 769.456 340.965 769.081 337.432C768.743 334.236 768.909 329.639 769.529 324.106C767.112 330.112 762.823 334.636 758.166 336.029C755.306 336.884 752.543 336.469 750.387 334.858C748.873 333.726 748.446 331.991 749.083 329.551C749.602 327.566 750.757 325.244 752.094 322.555C754.368 317.983 757.199 312.292 757.68 306.285C758.449 296.658 764.424 286.205 767.994 279.958C768.599 278.897 769.217 277.817 769.663 276.976C760.159 280.855 751.18 283.253 743.588 283.928C741.116 284.149 738.799 284.182 736.682 284.039C730.316 285.12 725.565 284.823 722.483 283.141C720.487 282.052 719.222 280.402 718.728 278.236C717.331 272.123 720.395 266.942 728.095 262.397C734.658 258.524 743.771 255.542 752.584 252.66C761.735 249.667 770.381 246.84 775.75 243.238C786.429 236.075 795.195 230.628 801.596 226.65C806.167 223.81 809.777 221.566 812.171 219.888C815.019 217.892 815.492 217.125 815.563 216.886C815.177 216.426 813.818 215.903 809.11 217.083C805.316 218.033 800.235 219.849 794.856 221.771C785.667 225.055 775.253 228.776 765.969 230.269C753.401 232.289 745.742 231.649 738.985 231.086C733.918 230.664 729.543 230.299 724.054 231.15C716.97 232.249 710.294 233.997 703.838 235.686C685.398 240.51 666.33 245.498 634.889 236.588C630.753 235.415 626.38 233.937 622.42 231.083C618.567 228.304 615.204 224.332 611.833 218.58C609.779 215.075 607.913 211.837 606.108 208.704C601.607 200.891 598.05 194.72 595.144 190.628C592.408 186.778 590.426 185.066 589.25 185.545C588.983 185.654 588.171 186.362 588.902 190.934C589.43 194.235 590.575 198.427 591.679 202.483C592.719 206.297 593.702 209.901 594.137 212.607C595.311 219.899 596.615 224.34 598.269 229.962C599.372 233.717 600.622 237.972 602.046 243.853C605.923 259.87 607.869 267.91 603.914 270.698C602.482 271.707 600.409 271.942 597.918 271.373C593.426 270.35 588.833 267.008 586.745 263.245C585.76 261.47 585.31 258.417 584.414 252.337C583.853 248.531 583.669 246.445 583.548 245.066C583.415 243.557 583.366 242.992 582.972 241.909C581.792 238.649 580.222 237.063 578.406 235.226C576.778 233.58 574.932 231.714 573.238 228.389C571.338 224.66 570.097 219.986 568.898 215.464C567.306 209.468 565.802 203.803 562.98 200.726C558.598 195.945 554.814 192.64 551.476 189.723C547.515 186.263 544.386 183.53 542.201 179.929C537.159 171.619 525.073 168.062 515.969 168.275C509.173 168.434 503.975 170.629 502.061 174.145C498.168 181.299 504.376 189.142 509.364 195.444C510.327 196.659 511.236 197.809 512.032 198.898C516.994 205.691 522.214 212.042 527.262 218.183C540.81 234.667 551.514 247.688 545.505 255.801C544.962 256.533 543.953 257.329 542.103 257.439C539.473 260.915 533.905 264.513 522.298 265.904L522.08 264.1C532.053 262.904 537.223 260.103 539.868 257.276C534.583 256.293 526.873 251.201 524.839 246.169C524.011 244.121 524.207 242.255 525.405 240.776C527.991 237.583 531.926 236.722 535.935 238.469C540.733 240.562 545.16 246.349 544.262 252.411C544.137 253.255 543.885 254.228 543.412 255.262C543.654 255.128 543.867 254.952 544.038 254.722C546.361 251.586 545.69 247.118 541.925 240.664C538.361 234.552 532.563 227.5 525.852 219.334C520.788 213.172 515.552 206.801 510.559 199.965C509.783 198.904 508.886 197.769 507.934 196.568C505.344 193.297 502.409 189.588 500.635 185.683C498.514 181.017 498.457 176.96 500.46 173.28C502.722 169.122 508.361 166.636 515.93 166.458C525.538 166.236 538.346 170.059 543.764 178.99C545.802 182.348 548.838 185 552.68 188.357C555.887 191.157 559.878 194.644 564.329 199.499C567.452 202.906 569.01 208.78 570.662 214.998C571.838 219.427 573.053 224.006 574.866 227.566C576.431 230.639 578.096 232.322 579.705 233.949C581.591 235.856 583.372 237.655 584.689 241.29C585.161 242.595 585.226 243.32 585.365 244.905C585.485 246.264 585.666 248.316 586.219 252.07C587.083 257.935 587.518 260.878 588.343 262.365C590.197 265.709 594.303 268.685 598.325 269.601C600.268 270.043 601.88 269.906 602.862 269.214C605.808 267.137 603.725 258.532 600.274 244.277C598.861 238.439 597.617 234.205 596.521 230.47C594.916 225.011 593.532 220.297 592.338 212.892C591.918 210.28 590.948 206.722 589.92 202.957C586.919 191.952 585.33 185.175 588.561 183.86C592.882 182.102 597.832 190.69 607.69 207.797C609.493 210.927 611.358 214.162 613.407 217.66C619.947 228.824 625.706 232.093 635.387 234.837C666.348 243.611 685.17 238.688 703.373 233.926C709.874 232.226 716.596 230.467 723.771 229.353C729.475 228.468 733.953 228.841 739.135 229.272C745.789 229.826 753.33 230.456 765.677 228.473C774.793 227.008 785.124 223.315 794.238 220.058C807.768 215.223 814.929 212.841 817.086 215.883C817.36 216.269 817.453 216.724 817.357 217.199C816.962 219.156 813.484 221.398 802.557 228.188C796.167 232.158 787.415 237.597 776.764 244.741C771.185 248.483 762.424 251.349 753.15 254.382C735.766 260.068 717.789 265.948 720.503 277.83C720.882 279.489 721.814 280.704 723.355 281.545C724.749 282.305 726.91 282.892 730.278 282.848C729.042 282.428 727.956 281.907 727.038 281.287C724.702 279.711 723.498 277.564 723.558 275.079C723.659 270.844 726.027 267.715 731.234 264.928C735.911 262.427 742.663 260.305 751.21 257.619C754.438 256.605 757.774 255.557 761.411 254.362C775.25 249.815 788.647 239.792 796.652 233.803C799.012 232.037 800.877 230.642 802.068 229.915C802.378 229.726 802.701 229.529 803.034 229.326C806.394 227.282 810.997 224.483 814.471 221.687C819.206 217.876 819.742 215.782 819.358 214.696C818.74 212.949 817.238 211.063 811.071 212.002C806.323 212.727 799.999 214.905 792.677 217.426C776.99 222.829 757.468 229.553 738.595 227.471C724.495 225.916 718.612 227.103 711.249 229.09C701.609 231.69 691.957 234.176 684.159 235.421C680.03 237.125 675.145 238.345 670.797 238.346C668.964 238.346 667.227 238.129 665.681 237.64C662.423 236.608 660.369 234.422 659.74 231.316C657.898 222.238 678.79 216.783 695.576 212.401C696.597 212.135 697.595 211.873 698.559 211.62C710.838 208.383 725.989 205.885 740.643 203.47C757.123 200.754 772.688 198.188 781.549 194.943C787.928 192.606 793.668 190.391 799.22 188.246C814.346 182.407 827.407 177.365 842.958 174.133C864.862 169.58 899.743 168.091 930.517 166.776C955.435 165.712 976.954 164.793 987.678 162.521C995.879 160.783 1000.53 163.869 1001.04 164.854C1001.3 165.345 1001.32 165.876 1001.1 166.387C1000.13 168.642 994.337 170.403 981.318 174.169C958.559 180.754 920.468 191.778 904.211 213.498C900.911 217.908 898.545 221.377 896.458 224.438C891.366 231.906 888.294 236.415 878.752 243.891C870.467 250.383 861.199 254.721 850.415 257.15C842.019 259.04 832.661 259.782 820.963 259.483C813.617 259.294 798.329 258.902 779.921 268.529C771.304 273.034 767.177 274.498 758.135 277.704C756.725 278.203 755.197 278.746 753.51 279.349C750.784 280.325 748.212 281.166 745.796 281.874C752.503 280.997 760.852 278.762 770.793 274.533L771.28 274.325L771.702 274.645C772.543 275.281 771.96 276.452 771.533 277.307C771.09 278.195 770.419 279.369 769.57 280.857C766.075 286.971 760.226 297.206 759.489 306.428C758.98 312.785 756.064 318.649 753.72 323.361C751.084 328.66 749.565 331.98 751.473 333.405C753.178 334.679 755.309 334.986 757.634 334.29C761.993 332.986 766.031 328.479 768.171 322.528C768.433 321.801 768.712 321.026 769.006 320.211C769.546 318.711 770.132 317.086 770.744 315.381C771.364 311.63 772.133 307.625 773.039 303.467C773.543 301.156 778.048 280.833 781.022 278.911C781.463 278.626 781.956 278.601 782.377 278.843C783.218 279.328 783.542 280.493 782.568 284.802C781.982 287.393 780.942 291.032 779.473 295.616C777.384 302.141 774.778 309.531 772.513 315.849C770.937 325.422 770.357 333.249 770.95 337.772C771.365 340.947 772.223 341.725 772.699 341.906C773.73 342.298 774.676 342.26 775.593 341.788C779.758 339.641 782.397 329.365 784.144 322.565C784.692 320.427 785.166 318.582 785.618 317.199C785.764 316.757 785.909 316.26 786.077 315.683C786.918 312.815 788.324 308.013 793.341 296.768C795.304 292.368 801.436 281.354 804.965 280.21C805.678 279.978 806.2 280.144 806.511 280.323C806.824 280.503 807.049 280.802 807.142 281.167C807.479 282.485 806.11 284.799 803.23 289.492C800.798 293.456 797.769 298.39 797.045 301.65C794.744 312.006 792.098 326.404 795.672 331.878C796.426 333.032 797.412 333.718 798.689 333.975C798.975 334.032 800.531 333.962 803.099 326.921C804.638 322.7 805.942 317.634 806.906 313.692C808.297 308.001 812.501 301.307 816.211 295.4C818.746 291.364 821.139 287.552 821.623 285.473C821.958 284.034 821.594 282.357 820.586 280.564C810.828 278.031 800.918 274.031 799.091 270.819C798.623 269.996 798.612 269.154 799.061 268.445C800.363 266.389 803.583 266.296 808.123 268.186C811.999 269.796 816.069 272.557 819.01 275.572C819.963 276.548 820.957 277.713 821.774 278.998C827.61 280.474 833.037 281.315 836.549 281.235C858.866 280.714 873.708 271.833 894.25 259.543C897.762 257.441 901.394 255.268 905.27 253.014C911.206 249.56 919.031 246.709 928.532 244.538C936.983 242.608 946.717 241.259 956.681 240.637C975.804 239.444 994.378 241.031 1004 244.678L1003.35 246.375C993.953 242.813 975.679 241.272 956.795 242.449C935.614 243.77 917.17 248.192 906.19 254.581C902.324 256.83 898.696 259 895.189 261.098C874.406 273.533 859.391 282.518 836.592 283.05C833.133 283.132 828.13 282.375 822.895 281.139C823.511 282.656 823.775 284.27 823.399 285.885C822.846 288.261 820.488 292.017 817.757 296.365C814.121 302.155 809.999 308.719 808.678 314.125C807.703 318.112 806.383 323.241 804.814 327.546C802.767 333.156 800.847 335.809 798.809 335.809C798.65 335.809 798.489 335.793 798.327 335.76C796.571 335.406 795.163 334.435 794.144 332.873C791.098 328.208 791.444 318.459 795.266 301.263C796.056 297.705 799.042 292.84 801.676 288.549C803.061 286.293 804.891 283.311 805.294 282.042C804.621 282.415 803.138 283.732 800.715 287.332C798.618 290.447 796.38 294.443 795.01 297.513C790.044 308.648 788.658 313.375 787.83 316.2C787.657 316.79 787.507 317.299 787.354 317.768C786.921 319.095 786.453 320.915 785.912 323.021C783.976 330.56 781.324 340.886 776.434 343.408C775.669 343.802 774.877 344 774.063 344L774.07 343.991ZM781.321 281.526C780.812 282.532 780.015 284.44 778.903 288.025C777.561 292.348 776.131 297.9 774.857 303.727C775.751 301.121 776.625 298.522 777.431 296.035C780.3 287.171 781.134 283.255 781.323 281.526H781.321ZM814.082 209.926C816.979 209.926 819.901 210.76 821.082 214.093C821.937 216.508 820.151 219.453 815.621 223.101C812.054 225.973 807.392 228.808 803.989 230.878C803.657 231.081 803.334 231.276 803.025 231.465C801.907 232.147 800.072 233.52 797.75 235.256C789.657 241.312 776.11 251.448 761.986 256.087C758.339 257.285 754.996 258.337 751.762 259.352C743.305 262.01 736.625 264.108 732.1 266.529C727.477 269.003 725.469 271.573 725.383 275.123C725.339 276.986 726.24 278.554 728.064 279.785C729.881 281.011 732.712 281.918 736.535 282.216C740.755 281.487 746.109 280.07 752.9 277.639C754.587 277.036 756.118 276.493 757.529 275.992C766.488 272.815 770.577 271.366 779.078 266.92C787.001 262.776 795.288 259.99 803.707 258.636C810.372 257.565 815.964 257.537 821.016 257.666C838.836 258.123 859.496 256.674 877.628 242.463C886.947 235.16 889.961 230.74 894.954 223.418C897.051 220.341 899.43 216.853 902.754 212.412C906.659 207.194 912.046 202.24 918.764 197.686C924.522 193.783 931.454 190.046 939.368 186.578C953.861 180.224 969.44 175.717 980.814 172.425C986.282 170.843 991.003 169.476 994.348 168.278C998.622 166.748 999.306 165.937 999.415 165.706C998.718 165.051 994.891 162.85 988.06 164.298C977.188 166.603 955.597 167.524 930.598 168.593C899.893 169.904 865.091 171.391 843.333 175.913C827.929 179.116 814.932 184.133 799.883 189.943C794.324 192.089 788.576 194.309 782.181 196.652C773.159 199.956 757.51 202.536 740.943 205.266C726.332 207.675 711.223 210.164 699.028 213.38C698.062 213.635 697.065 213.895 696.043 214.162C688.108 216.234 679.115 218.583 672.115 221.486C664.461 224.66 660.9 227.849 661.532 230.962C662.03 233.416 663.613 235.081 666.239 235.914C668.602 236.662 671.54 236.69 674.579 236.245C672.208 236.172 670.321 235.788 669.055 235.007C668.02 234.368 667.385 233.49 667.163 232.394C666.888 231.021 668.221 229.73 671.356 228.334C673.707 227.287 676.956 226.256 680.272 225.508C683.485 224.782 686.493 224.381 688.741 224.376C691.788 224.376 693.452 225.071 693.82 226.517C694.165 227.87 693.511 229.332 691.875 230.867C691.28 231.424 690.549 231.99 689.709 232.547C697.154 231.017 705.093 228.874 710.775 227.342C718.34 225.3 724.38 224.082 738.799 225.672C757.265 227.709 776.571 221.059 792.084 215.716C799.489 213.166 805.885 210.963 810.798 210.214C811.817 210.058 812.947 209.931 814.08 209.931L814.082 209.926ZM802.592 268.655C801.621 268.655 800.926 268.903 800.606 269.409C800.567 269.472 800.493 269.588 800.681 269.919C801.749 271.795 807.728 274.728 815.561 277.217C816.698 277.578 817.84 277.921 818.975 278.24C818.591 277.774 818.168 277.304 817.706 276.831C814.969 274.026 811.028 271.353 807.423 269.856C805.509 269.061 803.828 268.656 802.59 268.656L802.592 268.655ZM531.911 239.398C529.94 239.398 528.173 240.253 526.824 241.919C526.044 242.882 525.947 244.052 526.53 245.494C528.247 249.738 535.544 254.921 540.73 255.577C540.867 255.594 541.01 255.609 541.155 255.62C541.948 254.354 542.312 253.146 542.459 252.15C543.229 246.945 539.375 241.955 535.204 240.136C534.071 239.642 532.962 239.398 531.912 239.398H531.911ZM668.957 232.057C669.082 232.644 669.419 233.09 670.015 233.458C672.281 234.856 677.509 234.626 683.735 233.643C686.631 232.426 689.109 230.963 690.625 229.541C691.71 228.523 692.218 227.605 692.053 226.96C691.99 226.714 691.163 226.099 688.113 226.199C684.838 226.311 680.027 227.245 675.856 228.581C670.879 230.174 669.071 231.598 668.956 232.057H668.957Z" fill="#1D1D1B" fill-opacity="0.72"/>
<defs>
<radialGradient id="paint0_radial_0_1" cx="0" cy="0" r="1" gradientUnits="userSpaceOnUse" gradientTransform="translate(332 211.5) rotate(90) scale(211.5 332)">
<stop stop-color="#F8CB73"/>
<stop offset="1" stop-color="#F8CB73" stop-opacity="0"/>
</radialGradient>
<radialGradient id="paint1_radial_0_1" cx="0" cy="0" r="1" gradientUnits="userSpaceOnUse" gradientTransform="translate(1004.5 211.5) rotate(90) scale(211.5 340.5)">
<stop stop-color="#90C9FE"/>
<stop offset="1" stop-color="#90C9FE" stop-opacity="0"/>
</radialGradient>
</defs>
</svg>
