<svg width="626" height="338" viewBox="0 0 626 338" fill="none" xmlns="http://www.w3.org/2000/svg">
<path d="M192.557 49.7264C258.632 -16.5755 365.934 -16.5755 432.01 49.7264C465.33 83.1607 465.33 136.996 432.01 169.863C398.69 202.731 345.603 203.298 312.283 169.863C278.963 136.429 225.312 136.429 192.557 169.863C159.801 203.298 159.237 257.132 192.557 290C126.481 223.698 126.481 116.028 192.557 49.7264Z" fill="#F8CB73"/>
<path d="M431.443 288.274C365.368 354.576 258.066 354.576 191.99 288.274C158.67 254.839 158.67 201.004 191.99 168.137C225.31 135.269 278.397 134.702 311.717 168.137C345.037 201.571 398.688 201.571 431.443 168.137C464.199 134.702 464.763 80.8676 431.443 48C497.519 114.302 497.519 221.972 431.443 288.274Z" fill="#90C9FE"/>
<path d="M106.572 77H147.782L177.682 168H127.372C127.372 168 136.992 159.03 133.352 148.24L133.092 147.33H103.452L101.112 153.96C97.6016 164.1 102.282 168 102.282 168H73.4216C73.4216 168 81.6116 166.05 87.7216 148.24C87.8516 147.59 88.1116 146.94 88.2416 146.42L108.392 88.44C111.642 79.21 106.572 77 106.572 77ZM107.612 135.63H129.322L118.662 103.52L107.612 135.63ZM232.912 77C250.722 77.52 271.652 82.46 279.712 102.74C281.922 108.2 283.092 114.7 283.092 122.5C283.092 130.3 281.922 136.8 279.712 142.26C271.652 162.54 250.722 167.48 232.912 168H181.172C181.172 168 189.622 159.55 189.622 147.46V97.54C189.622 85.45 181.172 77 181.172 77H232.912ZM232.912 155.39C240.452 154.87 248.252 144.47 248.252 122.5C248.252 100.53 240.452 90.13 232.912 89.61H220.432V155.39H232.912ZM311.474 77H352.684L382.584 168H332.274C332.274 168 341.894 159.03 338.254 148.24L337.994 147.33H308.354L306.014 153.96C302.504 164.1 307.184 168 307.184 168H278.324C278.324 168 286.514 166.05 292.624 148.24C292.754 147.59 293.014 146.94 293.144 146.42L313.294 88.44C316.544 79.21 311.474 77 311.474 77ZM312.514 135.63H334.224L323.564 103.52L312.514 135.63ZM512.435 166.44C512.955 167.22 513.475 167.74 513.605 167.87C513.735 168 513.735 168 513.735 168L465.765 168.13C465.765 168.13 466.545 167.22 467.715 165.79C467.715 165.79 467.845 165.66 467.975 165.53C468.105 165.27 468.235 165.01 468.365 164.88C468.495 164.75 468.495 164.75 468.495 164.75C468.755 164.36 468.885 164.1 469.145 163.71C469.405 163.45 469.665 163.06 469.795 162.67C469.925 162.54 469.925 162.54 469.925 162.41C472.135 158.77 474.345 153.7 474.345 147.59V109.63L443.275 148.76L416.365 114.83V147.59C416.365 159.55 424.945 168.13 424.945 168.13H386.335C386.335 168.13 386.465 167.87 386.595 167.74L386.725 167.61C386.855 167.35 387.115 167.09 387.375 166.83C387.505 166.7 387.635 166.57 387.635 166.44C388.415 165.53 389.325 164.23 390.365 162.67C390.365 162.41 390.495 162.28 390.625 162.15C391.145 161.37 391.535 160.46 392.055 159.55C392.055 159.29 392.185 159.16 392.185 159.03C392.575 158.12 392.965 157.21 393.355 156.17C393.355 156.04 393.485 155.91 393.485 155.65C393.875 154.61 394.135 153.44 394.395 152.27C394.395 152.01 394.395 151.75 394.525 151.49C394.655 150.19 394.785 148.89 394.785 147.59V97.67C394.785 89.09 390.495 82.33 388.025 79.08L386.335 77.13H424.685L450.815 110.15L476.945 77.13L477.075 77H513.735C513.735 77 505.155 84.54 505.155 97.54V147.46C505.155 150.32 505.675 152.92 506.455 155.26C506.585 156.04 506.845 156.82 507.235 157.6C507.885 159.29 508.665 160.85 509.445 162.28C509.705 162.67 509.965 163.19 510.225 163.58C510.745 164.36 511.265 165.01 511.785 165.66C512.045 165.92 512.175 166.18 512.435 166.44ZM64.1875 186.13H102.798C102.798 186.13 94.3475 194.71 94.3475 206.67V245.41C94.3475 248.27 93.8275 251.13 93.1775 253.73C92.7875 255.16 92.3975 256.46 91.8775 257.76C89.0175 264.39 83.9475 269.98 77.5775 273.36C70.4275 277.78 61.4575 280.38 51.8375 280.38C42.2175 280.38 33.2475 277.78 26.0975 273.36C19.7275 269.98 14.6575 264.39 11.7975 257.76C11.2775 256.46 10.8875 255.16 10.4975 253.73C9.8475 251.13 9.3275 248.27 9.3275 245.41V206.8C9.3275 194.71 0.8775 186.13 0.8775 186.13H53.2675C53.2675 186.13 44.8175 194.71 44.6875 206.67L44.8175 250.61C44.8175 258.28 51.0575 264.65 58.7275 264.65C66.5275 264.52 72.7675 258.28 72.7675 250.61V206.67C72.7675 194.71 64.1875 186.13 64.1875 186.13ZM154.089 186.13H202.059C202.059 186.13 198.679 189.38 196.209 194.84C194.649 198.09 193.479 202.12 193.479 206.54V244.89C193.479 269.07 173.849 280.38 149.669 280.38C125.489 280.38 105.989 269.07 105.989 244.89C105.989 244.76 105.989 244.76 105.989 244.76H138.879C138.879 244.76 138.879 244.76 138.879 244.89V254.12C138.879 261.01 144.599 266.47 151.619 266.08C157.859 265.56 162.669 260.1 162.669 253.73V206.54C162.669 194.58 154.089 186.13 154.089 186.13ZM316.936 186C316.936 186 308.486 194.45 308.356 206.54V256.46C308.486 268.55 316.936 277 316.936 277H269.096C269.096 277 277.546 268.55 277.676 256.46V237.35H245.696V256.46C245.826 268.55 254.276 277 254.276 277H206.436C206.436 277 214.886 268.55 214.886 256.46V206.54C214.886 194.45 206.436 186 206.436 186H254.276C254.276 186 245.826 194.45 245.696 206.54V225.65H277.676V206.54C277.546 194.45 269.096 186 269.096 186H316.936ZM351.337 186H392.547L422.447 277H372.137C372.137 277 381.757 268.03 378.117 257.24L377.857 256.33H348.217L345.877 262.96C342.367 273.1 347.047 277 347.047 277H318.187C318.187 277 326.377 275.05 332.487 257.24C332.617 256.59 332.877 255.94 333.007 255.42L353.157 197.44C356.407 188.21 351.337 186 351.337 186ZM352.377 244.63H374.087L363.427 212.52L352.377 244.63ZM487.038 265.43C499.908 265.43 511.738 258.54 517.978 247.23C518.108 246.97 518.108 246.84 518.108 246.84L514.338 277H426.848L474.298 197.7H457.528C444.658 197.7 432.698 204.59 426.588 215.9C426.458 216.16 426.458 216.29 426.458 216.29L430.228 186.13H481.188H518.108L470.918 265.43H487.038ZM588.553 246.06L588.423 246.32V256.59C588.553 268.55 597.003 277.13 597.003 277.13H549.163C549.163 277.13 557.613 268.55 557.743 256.59V245.41L521.083 186.13H567.753H567.623C562.423 189.38 560.993 195.1 564.243 200.43L577.243 224.87L593.363 200.43C596.613 195.1 595.183 189.38 589.853 186.13H625.083L588.553 246.06Z" fill="#464646"/>
</svg>
