<svg width="125" height="125" viewBox="0 0 125 125" fill="none" xmlns="http://www.w3.org/2000/svg">
<path d="M98.8021 15.625H26.0417C20.3125 15.625 15.625 20.3125 15.625 26.0417V98.9583C15.625 104.688 20.3125 109.375 26.0417 109.375H98.8021C104.531 109.375 109.219 104.688 109.219 98.9583V26.0417C109.219 23.279 108.121 20.6295 106.168 18.676C104.214 16.7225 101.565 15.625 98.8021 15.625ZM90.5208 88.4375C90.3646 88.4896 90.1563 88.5417 90 88.5417H78.2292C77.7194 88.5503 77.2188 88.4061 76.7918 88.1276C76.3648 87.8491 76.0309 87.4491 75.8333 86.9792L63.0208 57.0833C62.9167 56.7708 62.6042 56.6146 62.3438 56.7188C62.2605 56.7501 62.185 56.7988 62.1221 56.8617C62.0592 56.9246 62.0105 57.0001 61.9792 57.0833L54.0104 76.0938C53.8542 76.4583 54.0104 76.8229 54.375 76.9792C54.4792 77.0312 54.5312 77.0312 54.6354 77.0312H63.3854C63.9062 77.0312 64.4271 77.3438 64.6354 77.8646L68.4896 86.4062C68.8542 87.1875 68.4375 88.125 67.6562 88.4896C67.3438 88.4896 67.1354 88.5417 66.9271 88.5417H35.0521C34.2708 88.5417 33.5938 87.8646 33.5938 87.0833C33.5938 86.875 33.6458 86.7188 33.6979 86.5104L54.0104 38.1771C54.4271 37.1354 55.4688 36.4583 56.5625 36.4583H68.2812C69.4271 36.4583 70.4167 37.1354 70.8333 38.1771L91.25 86.5104C91.6146 87.2396 91.3021 88.125 90.5208 88.4375Z" fill="white"/>
</svg>
