<svg width="739" height="274" viewBox="0 0 739 274" fill="none" xmlns="http://www.w3.org/2000/svg">
<path d="M3.5 271C96.5 172 381.7 -9.80007 740.5 78.9999" stroke="#FDFBF0" stroke-width="8"/>
<path d="M279.605 10.6619C279.133 10.4239 278.618 10.2817 278.09 10.2436C277.562 10.2055 277.032 10.2722 276.53 10.4399L250.007 19.2517C249.505 19.4184 249.04 19.6824 248.64 20.0286C248.24 20.3748 247.912 20.7964 247.675 21.2693C247.438 21.7422 247.296 22.2572 247.258 22.7849C247.22 23.3125 247.287 23.8425 247.453 24.3446L251.139 35.4392L249.241 53.304C249.166 54.0068 249.277 54.717 249.563 55.3633C249.849 56.0096 250.3 56.5692 250.871 56.986L283.741 80.9448C283.944 81.0932 284.176 81.1956 284.423 81.2449C284.669 81.2942 284.923 81.2891 285.167 81.23C285.411 81.171 285.64 81.0594 285.836 80.9031C286.033 80.7467 286.193 80.5493 286.305 80.3247C286.348 80.2384 286.384 80.149 286.414 80.0572L298.417 41.194C298.625 40.5183 298.653 39.7995 298.495 39.11C298.338 38.4204 298.002 37.7844 297.521 37.2658L285.311 24.0891L281.624 12.9906C281.458 12.4883 281.194 12.024 280.848 11.6243C280.501 11.2246 280.079 10.8975 279.605 10.6619ZM294.988 39.6166C295.056 39.6906 295.104 39.7812 295.127 39.8795C295.149 39.9777 295.145 40.0802 295.116 40.1765L284.702 73.8917L277.918 53.4737C279.478 52.5099 280.63 51.0068 281.154 49.2497C281.679 47.4927 281.54 45.6042 280.764 43.9428C279.988 42.2815 278.628 40.9631 276.944 40.238C275.26 39.5129 273.368 39.4316 271.628 40.0096C269.888 40.5876 268.42 41.7846 267.505 43.3733C266.589 44.962 266.289 46.8316 266.661 48.6272C267.033 50.4227 268.051 52.0191 269.523 53.1131C270.995 54.207 272.817 54.7224 274.643 54.5614L281.429 74.9833L252.906 54.192C252.826 54.1326 252.762 54.0533 252.721 53.9619C252.681 53.8705 252.665 53.7701 252.675 53.6706L254.502 36.543L283.276 26.986L294.988 39.6166ZM272.182 50.7138C271.47 50.3568 270.879 49.7965 270.486 49.104C270.092 48.4114 269.912 47.6176 269.969 46.8229C270.027 46.0283 270.318 45.2685 270.808 44.6396C271.297 44.0108 271.961 43.5411 272.717 43.2899C273.474 43.0388 274.287 43.0175 275.055 43.2288C275.824 43.44 276.512 43.8743 277.033 44.4768C277.555 45.0792 277.886 45.8227 277.984 46.6133C278.083 47.4038 277.945 48.2059 277.588 48.9181C277.11 49.8732 276.271 50.5989 275.257 50.9357C274.243 51.2724 273.137 51.1926 272.182 50.7138ZM278.347 14.0834L281.606 23.896L253.99 33.0707L250.729 23.2543C250.706 23.1826 250.696 23.1068 250.701 23.0314C250.707 22.9559 250.727 22.8823 250.761 22.8147C250.795 22.7471 250.842 22.6868 250.899 22.6374C250.956 22.5879 251.023 22.5502 251.094 22.5264L277.619 13.7185C277.691 13.6946 277.767 13.6851 277.842 13.6905C277.917 13.6959 277.991 13.7162 278.059 13.7501C278.126 13.784 278.187 13.8308 278.236 13.888C278.286 13.9452 278.323 14.0116 278.347 14.0834Z" fill="#FDFBF0"/>
<circle cx="290" cy="98" r="10" fill="#FDFBF0"/>
<path d="M429.622 2.57343L417.573 0.377581L415.378 12.4266L427.427 14.6224L429.622 2.57343ZM296.853 96.2336L423.353 8.73364L421.647 6.26636L295.147 93.7664L296.853 96.2336Z" fill="#FDFBF0"/>
<path d="M120.343 93.8256L129.239 85.4076L137.657 94.3034L128.761 102.721L120.343 93.8256ZM282.713 99.8077L128.959 95.5639L129.041 92.5651L282.796 96.8088L282.713 99.8077Z" fill="#FDFBF0"/>
</svg>
