<svg width="74" height="57" viewBox="0 0 74 57" fill="none" xmlns="http://www.w3.org/2000/svg">
<path d="M62.6133 4.69876C57.9265 2.50844 52.8521 0.918686 47.5663 0.000162502C47.5199 -0.0013234 47.4738 0.0073958 47.4312 0.0257072C47.3886 0.0440186 47.3505 0.0714775 47.3196 0.106147C46.6853 1.27197 45.9453 2.79106 45.4519 3.95688C39.8454 3.10901 34.1437 3.10901 28.5372 3.95688C28.0438 2.75573 27.3038 1.27197 26.6343 0.106147C26.599 0.0354911 26.4933 0.000162502 26.3876 0.000162502C21.1017 0.918686 16.0625 2.50844 11.3405 4.69876C11.3053 4.69876 11.27 4.73409 11.2348 4.76942C1.64977 19.1478 -0.993163 33.1377 0.310682 46.9862C0.310682 47.0568 0.345921 47.1275 0.416399 47.1628C6.75943 51.8261 12.8558 54.6523 18.8817 56.5247C18.9874 56.56 19.0931 56.5247 19.1283 56.454C20.5379 54.511 21.8065 52.462 22.8989 50.307C22.9694 50.1657 22.8989 50.0244 22.758 49.989C20.7493 49.2118 18.8464 48.2933 16.9788 47.2335C16.8378 47.1628 16.8378 46.9508 16.9435 46.8449C17.3311 46.5622 17.7188 46.2443 18.1064 45.9617C18.1769 45.891 18.2826 45.891 18.3531 45.9263C30.4753 51.4728 43.549 51.4728 55.5303 45.9263C55.6008 45.891 55.7065 45.891 55.777 45.9617C56.1646 46.2796 56.5522 46.5622 56.9399 46.8802C57.0808 46.9862 57.0808 47.1981 56.9046 47.2688C55.0722 48.364 53.134 49.2472 51.1254 50.0244C50.9845 50.0597 50.9492 50.2363 50.9845 50.3423C52.1121 52.4973 53.3807 54.5463 54.755 56.4894C54.8608 56.5247 54.9665 56.56 55.0722 56.5247C61.1333 54.6523 67.2297 51.8261 73.5727 47.1628C73.6432 47.1275 73.6784 47.0568 73.6784 46.9862C75.2289 30.9827 71.106 17.0988 62.7543 4.76942C62.7191 4.73409 62.6838 4.69876 62.6133 4.69876ZM24.7314 38.5428C21.1017 38.5428 18.0712 35.1867 18.0712 31.0533C18.0712 26.92 21.0313 23.5638 24.7314 23.5638C28.4667 23.5638 31.4268 26.9553 31.3915 31.0533C31.3915 35.1867 28.4315 38.5428 24.7314 38.5428ZM49.293 38.5428C45.6634 38.5428 42.6328 35.1867 42.6328 31.0533C42.6328 26.92 45.5929 23.5638 49.293 23.5638C53.0283 23.5638 55.9884 26.9553 55.9532 31.0533C55.9532 35.1867 53.0283 38.5428 49.293 38.5428Z" fill="#545454"/>
</svg>
