<svg width="16" height="16" viewBox="0 0 16 16" fill="none" xmlns="http://www.w3.org/2000/svg">
<path d="M8 11.575C7.86667 11.575 7.74167 11.554 7.625 11.512C7.50834 11.47 7.4 11.3993 7.3 11.3L3.7 7.7C3.51667 7.51667 3.425 7.28333 3.425 7C3.425 6.71667 3.51667 6.48333 3.7 6.3C3.88333 6.11667 4.121 6.021 4.413 6.013C4.705 6.005 4.94234 6.09233 5.125 6.275L7 8.15V1C7 0.716666 7.096 0.478999 7.288 0.286999C7.48 0.0949993 7.71734 -0.000667021 8 -3.54479e-07C8.28334 -3.54479e-07 8.521 0.0959997 8.713 0.288C8.905 0.48 9.00067 0.717333 9 1V8.15L10.875 6.275C11.0583 6.09167 11.296 6.004 11.588 6.012C11.88 6.02 12.1173 6.116 12.3 6.3C12.4833 6.48333 12.575 6.71667 12.575 7C12.575 7.28333 12.4833 7.51667 12.3 7.7L8.7 11.3C8.6 11.4 8.49167 11.471 8.375 11.513C8.25834 11.555 8.13334 11.5757 8 11.575ZM2 16C1.45 16 0.979002 15.8043 0.587002 15.413C0.195002 15.0217 -0.000664969 14.5507 1.69779e-06 14V12C1.69779e-06 11.7167 0.0960018 11.4793 0.288002 11.288C0.480002 11.0967 0.717335 11.0007 1 11C1.28334 11 1.521 11.096 1.713 11.288C1.905 11.48 2.00067 11.7173 2 12V14H14V12C14 11.7167 14.096 11.4793 14.288 11.288C14.48 11.0967 14.7173 11.0007 15 11C15.2833 11 15.521 11.096 15.713 11.288C15.905 11.48 16.0007 11.7173 16 12V14C16 14.55 15.804 15.021 15.412 15.413C15.02 15.805 14.5493 16.0007 14 16H2Z" fill="white"/>
</svg>
