<svg width="109" height="109" viewBox="0 0 109 109" fill="none" xmlns="http://www.w3.org/2000/svg">
<path d="M38.6043 9.08331C34.9907 9.08331 31.5251 10.5188 28.9699 13.074C26.4147 15.6292 24.9793 19.0947 24.9793 22.7083C24.9793 26.3219 26.4147 29.7875 28.9699 32.3426C31.5251 34.8978 34.9907 36.3333 38.6043 36.3333H70.3959C74.0095 36.3333 77.4751 34.8978 80.0303 32.3426C82.5854 29.7875 84.0209 26.3219 84.0209 22.7083C84.0209 19.0947 82.5854 15.6292 80.0303 13.074C77.4751 10.5188 74.0095 9.08331 70.3959 9.08331H38.6043ZM70.3959 40.875C66.7823 40.875 63.3168 42.3105 60.7616 44.8656C58.2064 47.4208 56.7709 50.8864 56.7709 54.5C56.7709 58.1136 58.2064 61.5791 60.7616 64.1343C63.3168 66.6895 66.7823 68.125 70.3959 68.125C74.0095 68.125 77.4751 66.6895 80.0303 64.1343C82.5854 61.5791 84.0209 58.1136 84.0209 54.5C84.0209 50.8864 82.5854 47.4208 80.0303 44.8656C77.4751 42.3105 74.0095 40.875 70.3959 40.875ZM24.9793 54.5C24.9793 50.8864 26.4147 47.4208 28.9699 44.8656C31.5251 42.3105 34.9907 40.875 38.6043 40.875H52.2293V68.125H38.6043C34.9907 68.125 31.5251 66.6895 28.9699 64.1343C26.4147 61.5791 24.9793 58.1136 24.9793 54.5ZM38.6043 72.6666C35.9095 72.6666 33.2752 73.4657 31.0346 74.9629C28.794 76.46 27.0476 78.5879 26.0164 81.0776C24.9852 83.5672 24.7153 86.3068 25.2411 88.9498C25.7668 91.5927 27.0644 94.0205 28.9699 95.926C30.8754 97.8315 33.3032 99.1291 35.9461 99.6548C38.5891 100.181 41.3287 99.9107 43.8183 98.8795C46.308 97.8483 48.4359 96.1019 49.933 93.8613C51.4302 91.6207 52.2293 88.9864 52.2293 86.2916V72.6666H38.6043Z" fill="white"/>
</svg>
