<svg width="104" height="104" viewBox="0 0 104 104" fill="none" xmlns="http://www.w3.org/2000/svg">
<path d="M6.5 6.5H97.5V97.5H6.5V6.5Z" fill="white"/>
<path d="M67.6292 77.5937C68.4046 79.1687 69.6092 80.4925 71.1042 81.4125C72.5993 82.3325 74.3239 82.8113 76.0792 82.7937C79.6217 82.7937 81.887 81.0225 81.887 78.5687C81.887 75.6437 79.56 74.5972 75.66 72.891L73.5215 71.9745C67.3465 69.3452 63.2515 66.053 63.2515 59.0915C63.2515 52.6792 68.1265 47.7945 75.7737 47.7945C78.2493 47.6157 80.7227 48.1698 82.8854 49.3875C85.0481 50.6053 86.8044 52.4328 87.9352 54.6422L81.25 58.916C80.8145 57.8205 80.0564 56.8832 79.076 56.2285C78.0957 55.5738 76.9395 55.2325 75.7607 55.25C75.2465 55.1985 74.7271 55.2547 74.2357 55.415C73.7444 55.5754 73.2918 55.8363 72.9069 56.1812C72.5219 56.5261 72.2131 56.9474 71.9999 57.4182C71.7868 57.8891 71.6741 58.3992 71.669 58.916C71.669 61.4802 73.2582 62.5202 76.9275 64.116L79.066 65.0325C86.333 68.1492 90.441 71.3245 90.441 78.4647C90.441 86.164 84.3927 90.3825 76.271 90.3825C73.1065 90.5841 69.9512 89.8657 67.186 88.3138C64.4208 86.7619 62.1637 84.4429 60.6872 81.6367L67.6292 77.5937ZM37.4205 78.3347C38.7627 80.717 39.9847 82.732 42.9227 82.732C45.7307 82.732 47.5052 81.6335 47.5052 77.3597V48.282H56.056V77.4735C56.056 86.3265 50.856 90.3565 43.2867 90.3565C40.6112 90.5027 37.954 89.836 35.6645 88.4438C33.3749 87.0516 31.5603 84.9993 30.459 82.5565L37.4205 78.3347Z" fill="black"/>
</svg>
