<svg width="74" height="74" viewBox="0 0 74 74" fill="none" xmlns="http://www.w3.org/2000/svg">
<path d="M71.04 0H2.96C1.32275 0 0 1.32275 0 2.96V71.04C0 72.6773 1.32275 74 2.96 74H71.04C72.6773 74 74 72.6773 74 71.04V2.96C74 1.32275 72.6773 0 71.04 0ZM21.9502 63.0573H10.9705V27.7407H21.9502V63.0573ZM16.465 22.9123C15.2063 22.9123 13.9759 22.539 12.9294 21.8397C11.8828 21.1404 11.0671 20.1465 10.5854 18.9836C10.1038 17.8208 9.97773 16.5412 10.2233 15.3067C10.4688 14.0722 11.075 12.9382 11.965 12.0482C12.855 11.1582 13.989 10.5521 15.2234 10.3065C16.4579 10.061 17.7375 10.187 18.9004 10.6687C20.0633 11.1504 21.0572 11.966 21.7565 13.0126C22.4558 14.0592 22.829 15.2896 22.829 16.5482C22.8197 20.0632 19.9708 22.9123 16.465 22.9123ZM63.0573 63.0573H52.0867V45.88C52.0867 41.7823 52.0128 36.519 46.3795 36.519C40.6723 36.519 39.7935 40.9775 39.7935 45.584V63.0573H28.8323V27.7407H39.3588V32.5693H39.5067C40.9682 29.7943 44.548 26.862 49.8945 26.862C61.013 26.862 63.0573 34.1787 63.0573 43.6877V63.0573Z" fill="#545454"/>
</svg>
