<svg width="195" height="46" viewBox="0 0 195 46" fill="none" xmlns="http://www.w3.org/2000/svg">
<g clip-path="url(#clip0_333_134)">
<path d="M39.3828 45.7191H65.4792C66.3084 45.7191 67.1223 45.5081 67.8406 45.107C68.5536 44.7101 69.1494 44.1328 69.5682 43.4331C69.9813 42.7419 70.1997 41.9521 70.2004 41.1472C70.2004 40.3447 69.9814 39.5562 69.5663 38.8613L52.0406 9.47068C51.6218 8.77121 51.026 8.19406 50.313 7.79719C49.5915 7.39509 48.7788 7.18436 47.9525 7.18513C47.1261 7.18436 46.3134 7.39509 45.5919 7.79719C44.8788 8.19399 44.2828 8.77115 43.864 9.47068L39.3828 16.9904L30.6215 2.28556C30.2022 1.58614 29.6061 1.00912 28.8928 0.612448C28.1711 0.210313 27.3583 -0.000540903 26.5318 1.53927e-06C25.7054 -0.000657103 24.8925 0.210066 24.1709 0.612068C23.4577 1.0089 22.8616 1.58605 22.4425 2.28556L0.63375 38.8613C0.219762 39.5522 0.000775158 40.3421 0 41.1472C0 41.9493 0.217471 42.7382 0.631846 43.4331C1.05073 44.1327 1.64667 44.7098 2.3598 45.1066C3.0815 45.5089 3.89451 45.7198 4.72113 45.7191H21.1019C27.5925 45.7191 32.3791 42.9591 35.6724 37.5736L43.6682 24.166L47.951 16.9907L60.805 38.5438H43.6682L39.3828 45.7191ZM20.8349 38.5366L9.40304 38.5339L26.5394 9.798L35.0897 24.166L29.365 33.7693C27.1777 37.2634 24.693 38.5366 20.8349 38.5366Z" fill="white"/>
<path d="M81.9 45.2891H89.5625V28.176C89.5625 23.2791 89.0514 18.3822 89.0514 18.3822L89.5031 19.3862C90.2157 20.9403 91.7007 24.0611 93.4446 27.0461L103.916 45.2884H112.14V7.62006H104.427L104.428 25.0552C104.449 29.8445 104.938 34.5802 104.938 34.5802L104.552 33.7074C103.87 32.192 102.356 28.9405 100.596 25.8623L90.0729 7.62006H81.9V45.2891ZM136.441 18.1674V33.0197C136.441 36.4636 134.245 39.0464 131.128 39.0464C128.217 39.0464 126.173 36.6788 126.173 33.396V18.1674H119.073V35.0642C119.073 41.2529 122.853 45.7195 128.625 45.7195C132.15 45.7195 135.01 44.1049 136.441 41.5221V45.2887H143.592V18.1674H136.441ZM164.388 31.1899L173.022 18.1674H165.205L160.507 25.3244L155.806 18.1674H148.042L156.676 31.1363L147.379 45.2887H154.99L160.557 36.9479L166.073 45.2887H173.634L164.388 31.1899H164.388ZM181.004 18.1674H176.049V24.4097H181.004V35.4409C181.004 41.7372 184.835 45.2887 190.761 45.2887H195V38.9928H191.731C189.433 38.9928 188.104 37.755 188.104 35.1182V24.4093H195V18.167H188.104V10.1493H181.005V18.167L181.004 18.1674Z" fill="black"/>
</g>
<defs>
<clipPath id="clip0_333_134">
<rect width="195" height="46" fill="white"/>
</clipPath>
</defs>
</svg>
