<svg width="111" height="111" viewBox="0 0 111 111" fill="none" xmlns="http://www.w3.org/2000/svg">
<path d="M55.5 27.75C43.1512 27.75 35.4737 33.9012 32.375 46.25C37 40.0988 42.4113 37.7863 48.5625 39.3125C52.0775 40.1912 54.6213 42.735 57.3962 45.5563C61.9287 50.1813 67.0625 55.5 78.625 55.5C90.9737 55.5 98.6513 49.3488 101.75 37C97.125 43.1512 91.7138 45.4638 85.5625 43.9375C82.0475 43.0588 79.55 40.515 76.7288 37.6937C72.1963 33.0687 67.0625 27.75 55.5 27.75ZM32.375 55.5C20.0262 55.5 12.3488 61.6512 9.25 74C13.875 67.8488 19.2863 65.5363 25.4375 67.0625C28.9525 67.9412 31.45 70.485 34.2712 73.3063C38.8037 77.9313 43.9375 83.25 55.5 83.25C67.8488 83.25 75.5263 77.0988 78.625 64.75C74 70.9012 68.5887 73.2137 62.4375 71.6875C58.9225 70.8088 56.425 68.265 53.6038 65.4437C49.0713 60.8187 43.9375 55.5 32.375 55.5Z" fill="white"/>
</svg>
