<svg width="686" height="126" viewBox="0 0 686 126" fill="none" xmlns="http://www.w3.org/2000/svg">
<path d="M38.5 74.9601L0.280029 54.9401V50.3201L38.36 30.4401L39.62 32.6801L2.24003 52.5601L39.76 72.1601L38.5 74.9601Z" fill="white"/>
<path d="M117.999 121.58C121.359 120.647 124.906 119.107 128.639 116.96L129.339 118.78C122.059 123.073 113.613 125.22 103.999 125.22C94.8526 125.22 86.8259 123.493 79.9193 120.04C73.0126 116.68 67.6459 111.873 63.8193 105.62C60.0859 99.3667 58.2192 92.1334 58.2192 83.9201C58.2192 74.4934 60.5526 65.8601 65.2192 58.0201C69.8859 50.1801 76.2326 44.0201 84.2593 39.5401C92.3793 34.9667 101.293 32.6801 110.999 32.6801C118.559 32.6801 125.326 34.2201 131.299 37.3001C137.366 40.2867 142.079 44.4867 145.439 49.9001C148.799 55.3134 150.479 61.4734 150.479 68.3801C150.479 74.2601 149.219 79.7667 146.699 84.9001C144.273 90.0334 141.006 94.1401 136.899 97.2201C132.793 100.3 128.359 101.84 123.599 101.84C120.053 101.84 117.253 101 115.199 99.3201C113.239 97.5467 112.259 95.0734 112.259 91.9001C112.259 90.6867 112.446 89.8467 112.819 89.3801L112.399 89.2401C107.266 96.6134 101.386 100.3 94.7593 100.3C90.5593 100.3 87.2459 99.0401 84.8193 96.5201C82.3926 93.9067 81.1793 90.4067 81.1793 86.0201C81.1793 80.8867 82.7192 75.6134 85.7992 70.2001C88.9726 64.7867 92.9392 60.3067 97.6992 56.7601C102.459 53.2134 107.126 51.4401 111.699 51.4401C113.846 51.4401 115.619 51.9067 117.019 52.8401C118.513 53.6801 119.679 55.0801 120.519 57.0401H121.079L122.759 51.4401H133.399L122.479 88.4001C121.919 89.9867 121.639 91.5267 121.639 93.0201C121.639 95.0734 122.013 96.5667 122.759 97.5001C123.506 98.3401 124.766 98.7601 126.539 98.7601C130.273 98.7601 133.819 97.3601 137.179 94.5601C140.539 91.6667 143.246 87.8867 145.299 83.2201C147.353 78.5534 148.379 73.6534 148.379 68.5201C148.379 61.9867 146.746 56.2001 143.479 51.1601C140.306 46.0267 135.873 42.0134 130.179 39.1201C124.486 36.2267 118.046 34.7801 110.859 34.7801C102.739 34.7801 95.3193 36.8801 88.5993 41.0801C81.9726 45.2801 76.7459 51.0667 72.9193 58.4401C69.0926 65.8134 67.1793 73.9801 67.1793 82.9401C67.1793 91.0601 68.7659 98.1067 71.9392 104.08C75.2059 110.147 79.8259 114.813 85.7992 118.08C91.7726 121.347 98.7726 122.98 106.799 122.98C110.999 122.98 114.733 122.513 117.999 121.58ZM92.9392 95.6801C94.0592 97.4534 95.6459 98.3401 97.6992 98.3401C100.966 98.3401 104.233 96.5667 107.499 93.0201C110.859 89.3801 113.566 84.7601 115.619 79.1601C117.766 73.5601 118.839 68.0067 118.839 62.5001C118.839 59.2334 118.373 56.8534 117.439 55.3601C116.599 53.8667 115.199 53.1201 113.239 53.1201C109.973 53.1201 106.613 54.8934 103.159 58.4401C99.7993 61.9867 96.9993 66.4667 94.7593 71.8801C92.5193 77.2934 91.3992 82.6134 91.3992 87.8401C91.3992 91.2934 91.9126 93.9067 92.9392 95.6801Z" fill="white"/>
<path d="M176.513 44.3001C180.713 41.5934 185.473 40.2401 190.793 40.2401C196.019 40.2401 200.406 41.4067 203.953 43.7401C207.593 46.0734 209.413 48.9667 209.413 52.4201C209.413 54.0067 208.946 55.3134 208.013 56.3401C207.079 57.2734 205.819 57.7401 204.233 57.7401C202.366 57.7401 201.059 57.1801 200.313 56.0601C199.659 54.8467 199.053 52.9801 198.493 50.4601C197.839 47.5667 196.999 45.3734 195.973 43.8801C194.946 42.3867 193.033 41.6401 190.233 41.6401C186.873 41.6401 183.839 42.8534 181.133 45.2801C178.426 47.7067 176.279 51.0667 174.693 55.3601C173.199 59.6534 172.453 64.5067 172.453 69.9201C172.453 78.0401 174.179 84.3401 177.633 88.8201C181.086 93.3001 185.986 95.5401 192.333 95.5401C195.786 95.5401 198.866 94.8401 201.573 93.4401C204.373 91.9467 206.939 89.7067 209.273 86.7201L210.533 85.0401L211.093 85.3201L210.533 86.8601C208.666 91.8067 205.819 95.6334 201.993 98.3401C198.259 101.047 193.826 102.4 188.693 102.4C183.746 102.4 179.313 101.14 175.393 98.6201C171.566 96.0067 168.533 92.4134 166.293 87.8401C164.146 83.1734 163.073 77.9001 163.073 72.0201C163.073 65.9534 164.239 60.4934 166.573 55.6401C168.999 50.7867 172.313 47.0067 176.513 44.3001Z" fill="white"/>
<path d="M234.508 0.0600586V98.7601L243.048 99.8801V101H216.868V99.8801L225.408 98.7601V9.58005L217.148 6.50006V5.52005L233.388 0.0600586H234.508Z" fill="white"/>
<path d="M256.44 15.3201C255.226 16.5334 254.62 18.1201 254.62 20.0801C254.62 22.0401 255.226 23.6734 256.44 24.9801C257.746 26.1934 259.38 26.8001 261.34 26.8001C263.3 26.8001 264.886 26.1934 266.1 24.9801C267.406 23.6734 268.06 22.0401 268.06 20.0801C268.06 18.1201 267.406 16.5334 266.1 15.3201C264.886 14.0134 263.3 13.3601 261.34 13.3601C259.38 13.3601 257.746 14.0134 256.44 15.3201ZM266.66 40.2401V98.7601L275.2 99.8801V101H249.02V99.8801L257.56 98.7601V49.7601L249.3 46.6801V45.7001L265.54 40.2401H266.66Z" fill="white"/>
<path d="M296.552 44.3001C300.752 41.5934 305.512 40.2401 310.832 40.2401C316.058 40.2401 320.445 41.4067 323.992 43.7401C327.632 46.0734 329.452 48.9667 329.452 52.4201C329.452 54.0067 328.985 55.3134 328.052 56.3401C327.118 57.2734 325.858 57.7401 324.272 57.7401C322.405 57.7401 321.098 57.1801 320.352 56.0601C319.698 54.8467 319.092 52.9801 318.532 50.4601C317.878 47.5667 317.038 45.3734 316.012 43.8801C314.985 42.3867 313.072 41.6401 310.272 41.6401C306.912 41.6401 303.878 42.8534 301.172 45.2801C298.465 47.7067 296.318 51.0667 294.732 55.3601C293.238 59.6534 292.492 64.5067 292.492 69.9201C292.492 78.0401 294.218 84.3401 297.672 88.8201C301.125 93.3001 306.025 95.5401 312.372 95.5401C315.825 95.5401 318.905 94.8401 321.612 93.4401C324.412 91.9467 326.978 89.7067 329.312 86.7201L330.572 85.0401L331.132 85.3201L330.572 86.8601C328.705 91.8067 325.858 95.6334 322.032 98.3401C318.298 101.047 313.865 102.4 308.732 102.4C303.785 102.4 299.352 101.14 295.432 98.6201C291.605 96.0067 288.572 92.4134 286.332 87.8401C284.185 83.1734 283.112 77.9001 283.112 72.0201C283.112 65.9534 284.278 60.4934 286.612 55.6401C289.038 50.7867 292.352 47.0067 296.552 44.3001Z" fill="white"/>
<path d="M400.047 99.8801V101H382.127L358.467 72.3001L354.547 77.0601V98.7601L362.947 99.8801V101H336.907V99.8801L345.447 98.7601V9.58005L337.187 6.50006V5.52005L353.427 0.0600586H354.547V74.5401L374.427 50.6001C376.107 48.4534 376.947 46.9601 376.947 46.1201C376.947 45.2801 376.34 44.6267 375.127 44.1601C373.913 43.6934 371.627 43.2267 368.267 42.7601V41.6401H391.927V42.7601C388.193 43.4134 385.253 44.3001 383.107 45.4201C381.053 46.4467 379.093 48.0801 377.227 50.3201L364.627 65.1601L392.347 98.7601L400.047 99.8801Z" fill="white"/>
<path d="M468.456 99.7401C465.47 101.513 462.203 102.4 458.656 102.4C454.27 102.4 450.303 101.093 446.756 98.4801C443.21 95.8667 440.41 92.3201 438.356 87.8401C436.396 83.2667 435.416 78.1334 435.416 72.4401C435.416 66.1867 436.63 60.6334 439.056 55.7801C441.576 50.8334 445.076 47.0067 449.556 44.3001C454.13 41.5934 459.31 40.2401 465.096 40.2401C468.736 40.2401 472.376 40.8001 476.016 41.9201V9.58005L467.756 6.50006V5.52005L483.996 0.0600586H485.116V92.3201L492.816 94.0001V94.7001L477.556 101.7H476.716V92.1801L476.296 92.0401C474.15 95.4001 471.536 97.9667 468.456 99.7401ZM450.116 89.8001C453.383 94.4667 457.863 96.8001 463.556 96.8001C466.263 96.8001 468.69 96.2401 470.836 95.1201C473.076 93.9067 474.803 92.2734 476.016 90.2201V54.3801C476.016 50.2734 475.036 47.1467 473.076 45.0001C471.21 42.7601 468.503 41.6401 464.956 41.6401C459.076 41.6401 454.316 44.3001 450.676 49.6201C447.13 54.8467 445.356 61.8001 445.356 70.4801C445.356 78.6001 446.943 85.0401 450.116 89.8001Z" fill="white"/>
<path d="M506.772 15.3201C505.558 16.5334 504.952 18.1201 504.952 20.0801C504.952 22.0401 505.558 23.6734 506.772 24.9801C508.078 26.1934 509.712 26.8001 511.672 26.8001C513.632 26.8001 515.218 26.1934 516.432 24.9801C517.738 23.6734 518.392 22.0401 518.392 20.0801C518.392 18.1201 517.738 16.5334 516.432 15.3201C515.218 14.0134 513.632 13.3601 511.672 13.3601C509.712 13.3601 508.078 14.0134 506.772 15.3201ZM516.992 40.2401V98.7601L525.532 99.8801V101H499.352V99.8801L507.892 98.7601V49.7601L499.632 46.6801V45.7001L515.872 40.2401H516.992Z" fill="white"/>
<path d="M578.804 50.1801L561.304 101.42H558.504L537.924 48.6401C537.084 46.4934 536.01 45.0467 534.704 44.3001C533.49 43.4601 531.297 42.9467 528.124 42.7601V41.6401H555.144V42.7601C551.784 42.9467 549.59 43.2267 548.564 43.6001C547.63 43.8801 547.164 44.3934 547.164 45.1401C547.164 45.7001 547.49 46.9134 548.144 48.7801L562.704 90.0801H563.264L575.864 52.2801C576.424 50.4134 576.704 48.9667 576.704 47.9401C576.704 46.4467 576.004 45.3734 574.604 44.7201C573.204 43.9734 570.637 43.3201 566.904 42.7601V41.6401H591.964V42.7601C587.67 43.2267 584.59 44.0201 582.724 45.1401C580.857 46.1667 579.55 47.8467 578.804 50.1801Z" fill="white"/>
<path d="M594.713 101L624.113 4.40005H627.333L597.933 101H594.713Z" fill="white"/>
<path d="M647.661 30.4401L685.741 50.3201V54.9401L647.521 74.9601L646.261 72.1601L683.781 52.5601L646.401 32.6801L647.661 30.4401Z" fill="white"/>
</svg>
